<svg xmlns="http://www.w3.org/2000/svg" viewBox="0 0 800 800">
  <defs>
    <linearGradient id="paper" x1="0" y1="0" x2="1" y2="1">
      <stop offset="0" stop-color="#e0cfaa"/>
      <stop offset="1" stop-color="#9f8e6f"/>
    </linearGradient>
    <pattern id="grain" width="22" height="22" patternUnits="userSpaceOnUse">
      <circle cx="3" cy="5" r="1" fill="#000" opacity=".07"/>
      <circle cx="16" cy="12" r=".8" fill="#000" opacity=".05"/>
      <path d="M0 20L22 0" stroke="#000" stroke-width=".6" opacity=".035"/>
    </pattern>
  </defs>
  <rect width="800" height="800" fill="url(#paper)"/>
  <rect width="800" height="800" fill="url(#grain)"/>
  <polygon points="400,62 451,220 617,220 483,318 534,476 400,380 266,476 317,318 183,220 349,220" fill="#b72b25"/>
  <g fill="#17130f">
    <circle cx="400" cy="342" r="62"/>
    <rect x="354" y="390" width="92" height="170" rx="30"/>
    <path d="M352 420L210 555L250 588L390 470Z"/>
    <path d="M448 420L590 555L550 588L410 470Z"/>
    <path d="M362 540L290 696H350L405 570Z"/>
    <path d="M438 540L510 696H450L395 570Z"/>
    <rect x="426" y="205" width="35" height="230" rx="14" transform="rotate(-13 443 320)"/>
    <circle cx="466" cy="198" r="34"/>
  </g>
  <rect x="0" y="590" width="800" height="210" fill="#17130f" opacity=".93"/>
  <text x="400" y="662" text-anchor="middle" font-family="Arial" font-size="62" font-weight="900" fill="#f4ead7">HALKLARIN SESİ</text>
  <text x="400" y="720" text-anchor="middle" font-family="Arial" font-size="25" font-weight="700" fill="#d22d27">EMEĞİN, ÖZGÜRLÜĞÜN, EŞİTLİĞİN SESİ</text>
  <text x="400" y="758" text-anchor="middle" font-family="Arial" font-size="18" font-weight="700" fill="#d8c5a4">HALKLARIN SESİ RADYOSU</text>
</svg>